<svg id="Laag_1" height="50px" width="110px" data-name="Laag 1" xmlns="http://www.w3.org/2000/svg" viewBox="0 0 283.46 109.55"><defs><style>
                                                                                                             .cls-1 {
                                                                                                                 fill: #4b423f;
                                                                                                             }

                                                                                                             .cls-2 {
                                                                                                                 fill: #e95e40;
                                                                                                             }
</style></defs>
<title>NH_Logo</title>
<path class="cls-1" d="M97.14,19.2c-9.41.54-15.54,5.21-19.83,10.34v-25H55V46.12L24.72,4.53H0v97.89L25.92,95V45.26L58.67,85.58l18.64-5.35V47.17c.47-5.77,4.47-9.3,9.76-10,5.64-.7,9.45,2,9.45,8V74.73l23.19-6.65V36C119.71,24.82,111.25,18.39,97.14,19.2Z" transform="translate(0 -3.9)" />
<path class="cls-1" d="M106.85,109.28H104.7l-.06-.13-8.12-19h2.81l6.47,15.67,6.5-15.67H115Z" transform="translate(0 -3.9)" />
<path class="cls-1" d="M121.2,109.46a7.06,7.06,0,0,1-7.07-7.36c0-4.18,3-7.42,6.8-7.42s6.62,3,6.62,7.47a5.54,5.54,0,0,1,0,.69l0,.19H116.66a4.56,4.56,0,0,0,4.59,4.21,5.48,5.48,0,0,0,4.17-1.86l.14-.16,1.59,1.43-.14.16A7.26,7.26,0,0,1,121.2,109.46Zm-4.54-8.37H125c-.25-2.1-1.45-4.25-4.15-4.25C118.7,96.85,117,98.59,116.66,101.09Z" transform="translate(0 -3.9)" />
<path class="cls-1" d="M133.28,109.14H130.8V95h2.48v2.91a5.93,5.93,0,0,1,5.4-3.15h.2v2.63h-.37c-3.18,0-5.23,2.39-5.23,6.08Z" transform="translate(0 -3.9)" />
<path class="cls-1" d="M153.22,109.14H140.88v-1.6l.05-.06,8.82-10.35H141.2V95h12v1.6l-.05.06L144.33,107h8.89Z" transform="translate(0 -3.9)" />
<path class="cls-1" d="M161.87,109.46a7.06,7.06,0,0,1-7.07-7.36c0-4.18,3-7.42,6.8-7.42s6.62,3,6.62,7.47a5.55,5.55,0,0,1,0,.69l0,.19H157.33a4.57,4.57,0,0,0,4.6,4.21,5.46,5.46,0,0,0,4.17-1.86l.15-.16,1.59,1.43-.15.16A7.26,7.26,0,0,1,161.87,109.46Zm-4.55-8.37h8.37c-.24-2.1-1.46-4.25-4.14-4.25C159.37,96.85,157.66,98.59,157.33,101.09Z" transform="translate(0 -3.9)" />
<path class="cls-1" d="M184.31,109.14h-3l-4.83-6.29L174,105.44v3.71h-2.48V89.32H174v13.07L181,95h3.16l-6,6.13Z" transform="translate(0 -3.9)" />
<path class="cls-1" d="M192.11,109.46a7.06,7.06,0,0,1-7.07-7.36c0-4.18,3-7.42,6.8-7.42s6.62,3,6.62,7.47a5.37,5.37,0,0,1,0,.69l0,.19H187.56a4.57,4.57,0,0,0,4.6,4.21,5.46,5.46,0,0,0,4.17-1.86l.15-.16,1.59,1.43-.15.16A7.25,7.25,0,0,1,192.11,109.46Zm-4.54-8.37h8.37c-.24-2.1-1.45-4.25-4.14-4.25C189.61,96.85,187.9,98.59,187.56,101.09Z" transform="translate(0 -3.9)" />
<path class="cls-1" d="M204.18,109.14h-2.48V95h2.48v2.91a5.9,5.9,0,0,1,5.39-3.15h.21v2.63h-.37c-3.18,0-5.23,2.39-5.23,6.08Z" transform="translate(0 -3.9)" />
<path class="cls-1" d="M214.9,109.14h-2.47V95h2.47Zm.16-16.74H212.3V89.72h2.77Z" transform="translate(0 -3.9)" />
<path class="cls-1" d="M231.54,109.14h-2.47V100.9c0-2.46-1.34-3.92-3.58-3.92a3.82,3.82,0,0,0-3.91,4.08v8.08h-2.47V95h2.47v1.91a5.33,5.33,0,0,1,4.49-2.2c3.33,0,5.47,2.25,5.47,5.72Z" transform="translate(0 -3.9)" />
<path class="cls-1" d="M241.73,113.45a11,11,0,0,1-6.36-2l-.17-.11,1.15-2,.19.14a8.62,8.62,0,0,0,5.16,1.71c3,0,4.78-1.7,4.78-4.67v-1a6.52,6.52,0,0,1-5.18,2.5,6.7,6.7,0,1,1,5.15-11V95h2.48v11.56a6.8,6.8,0,0,1-1.82,5A7.42,7.42,0,0,1,241.73,113.45Zm0-16.52a4.32,4.32,0,0,0-4.53,4.4,4.46,4.46,0,0,0,4.53,4.51,4.47,4.47,0,1,0,0-8.91Z" transform="translate(0 -3.9)" />
<path class="cls-1" d="M259.34,109.46a7.06,7.06,0,0,1-7.07-7.36c0-4.18,3-7.42,6.8-7.42s6.62,3,6.62,7.47a5.37,5.37,0,0,1,0,.69l0,.19H254.79a4.57,4.57,0,0,0,4.6,4.21,5.47,5.47,0,0,0,4.17-1.86l.15-.16,1.59,1.43-.14.16A7.26,7.26,0,0,1,259.34,109.46Zm-4.54-8.37h8.37c-.25-2.1-1.45-4.25-4.14-4.25C256.84,96.85,255.13,98.59,254.79,101.09Z" transform="translate(0 -3.9)" />
<path class="cls-1" d="M281.38,109.14H278.9V100.9c0-2.46-1.34-3.92-3.59-3.92a3.82,3.82,0,0,0-3.9,4.08v8.08h-2.48V95h2.48v1.91a5.32,5.32,0,0,1,4.49-2.2c3.33,0,5.47,2.25,5.47,5.72Z" transform="translate(0 -3.9)" />
<path class="cls-2" d="M148,68.08h-7.79V12.82l-11.67,3.35-1.93-6.5,15.81-5.15H148Z" transform="translate(0 -3.9)" />
<path class="cls-2" d="M227,68.08H219.2V12.82l-11.67,3.35-1.93-6.5L221.4,4.52H227Z" transform="translate(0 -3.9)" />
<path class="cls-2" d="M180.14,69c-13.8,0-23.83-7.59-23.83-18v-.18c0-6.74,4.42-12.29,12.15-15.35-6.56-3.3-10-8.22-10-14.27V21c0-9.47,9.53-16.88,21.69-16.88S201.82,11.49,201.82,21v.18c0,6.06-3.46,11-10,14.28C199.65,38.62,204,44,204,50.66v.18C204,61.35,193.94,69,180.14,69Zm0-29.8c-9,0-15.85,4.9-15.85,11.4v.18c0,5.58,5.45,11.22,15.85,11.22C189.47,62,196,57.36,196,50.75v-.18C196,44.07,189.18,39.17,180.14,39.17Zm0-28.1c-7.87,0-13.8,4.44-13.8,10.33v.18c0,6.35,5.81,11,13.8,11s13.8-4.61,13.8-11V21.4C193.94,15.51,188,11.07,180.14,11.07Z" transform="translate(0 -3.9)" />
<path class="cls-2" d="M260.71,69.14c-6.69,0-12.45-2.22-16.67-6.44-5.65-5.65-8-12.72-8-24.41v-.18c0-20.47,10.57-34.23,26.31-34.23,6.93,0,12.51,2.16,18.68,7.21l.32.26-4.61,6.12-.35-.29c-5-4.23-9.31-6-14.4-6-12.15,0-17.76,13.3-17.89,25.82a20.55,20.55,0,0,1,17.36-8.7c12.51,0,22,8.4,22,19.55V48C283.46,60.05,273.68,69.14,260.71,69.14Zm-.09-34c-9.35,0-15.14,6.84-15.14,13.18v.18c0,7.84,6.44,13.54,15.32,13.54,8.46,0,14.6-5.81,14.6-13.8v-.18C275.4,40.6,269.19,35.17,260.62,35.17Z" transform="translate(0 -3.9)" /></svg>